<?xml version="1.0" encoding="UTF-8"?>
<svg viewBox="0 0 39 41" version="1.1" xmlns="http://www.w3.org/2000/svg" xmlns:xlink="http://www.w3.org/1999/xlink">
    <title>hasura</title>
    <g id="hasura" stroke="none" stroke-width="1" fill-rule="evenodd">
        <path d="M35.6639,0.320847 C35.9094,-0.0645169 36.4594,-0.114387 36.7548,0.234707 C39.0094,2.89598 39.7094,10.1045 38.5457,13.7179 C38.1594,14.9193 38.0503,16.1888 38.273,17.4219 C38.5003,18.646 38.7276,20.124 38.7276,21.1531 C38.7276,31.7166 30.1412,40.2853 19.5457,40.2853 C8.95474,40.2853 0.363805,31.7212 0.363805,21.1531 C0.363805,20.124 0.591078,18.646 0.818352,17.4219 C1.04562,16.1888 0.941079,14.9193 0.554715,13.7179 C-0.608925,10.1091 0.0910768,2.90052 2.34563,0.234707 C2.64108,-0.109854 3.19109,-0.0645169 3.43654,0.320847 L3.43654,0.320847 L6.21382,4.66865 C6.90473,5.53459 8.1411,5.7386 9.06838,5.13109 C12.082,3.16347 15.682,2.02098 19.5502,2.02098 C23.4184,2.02098 27.0184,3.16347 30.0321,5.13109 C30.9639,5.7386 32.2003,5.53912 32.8866,4.66865 L32.8866,4.66865 Z M19.5502,6.39146 C17.2775,6.39146 15.1229,6.89923 13.2002,7.81503 C8.40474,10.0819 5.01382,14.8377 4.71836,20.4051 C4.70473,20.668 4.69564,20.931 4.69564,21.1985 C4.69564,29.3682 11.3547,36.0146 19.5457,36.0146 C27.7366,36.0146 34.4003,29.3682 34.4048,21.203 C34.4048,20.9401 34.3957,20.6726 34.3821,20.4096 C34.0866,14.8468 30.6957,10.0864 25.9002,7.81957 C23.973,6.89923 21.823,6.39146 19.5502,6.39146 Z M18.7376,14.2188 C18.8847,14.2188 19.0228,14.2967 19.0986,14.4298 L19.0986,14.4298 L22.2892,19.9671 L26.0101,26.61 C26.0858,26.743 26.0858,26.9082 26.0101,27.0366 C25.9388,27.1697 25.8006,27.2522 25.6491,27.2522 L25.6491,27.2522 L22.6234,27.2522 C22.4763,27.2522 22.3382,27.1697 22.2625,27.0366 L22.2625,27.0366 L20.275,23.4904 L18.0603,27.0504 C17.9846,27.1742 17.8509,27.2476 17.7083,27.2476 L17.7083,27.2476 L14.638,27.2476 C14.482,27.2476 14.3394,27.1605 14.2681,27.0229 C14.1968,26.8852 14.2013,26.7155 14.286,26.5824 L14.286,26.5824 L18.3812,20.1506 L15.3287,14.8702 C15.2529,14.7372 15.2485,14.572 15.3242,14.439 C15.4,14.3013 15.5381,14.2188 15.6896,14.2188 L15.6896,14.2188 Z" fill-rule="nonzero"></path>
    </g>
</svg>