<?xml version="1.0" encoding="UTF-8"?>
<svg viewBox="0 0 256 70" version="1.1" xmlns="http://www.w3.org/2000/svg" xmlns:xlink="http://www.w3.org/1999/xlink">
    <g id="Page-1" stroke="none" stroke-width="1" fill-rule="evenodd">
        <g id="netflix" fill-rule="nonzero">
            <path d="M35.20075,64.726 C31.34975,65.40225 27.431,65.605 23.37725,66.145 L11.01275,29.931 L11.01275,67.69925 C7.16175,68.1045 3.6485,68.645 0,69.1855 L0,5.32907052e-15 L10.27,5.32907052e-15 L24.323,39.25525 L24.323,5.32907052e-15 L35.20075,5.32907052e-15 L35.20075,64.726 Z M56.4835,25.3365 C60.67275,25.3365 67.09125,25.13375 70.94225,25.13375 L70.94225,35.94375 C66.145,35.94375 60.5375,35.94375 56.4835,36.1465 L56.4835,52.227 C62.83475,51.82175 69.18575,51.28075 75.604,51.078 L75.604,61.48225 L45.673,63.8475 L45.673,1.59872116e-14 L75.604,1.59872116e-14 L75.604,10.81025 L56.4835,10.81025 L56.4835,25.3365 Z M115.8045,10.8105 L104.589,10.8105 L104.589,60.5375 C100.9405,60.5375 97.292,60.5375 93.77925,60.67225 L93.77925,10.8105 L82.56375,10.8105 L82.56375,-1.77635684e-15 L115.805,-1.77635684e-15 L115.8045,10.8105 L115.8045,10.8105 Z M133.371,24.5935 L148.16775,24.5935 L148.16775,35.4035 L133.371,35.4035 L133.371,59.9295 L122.76275,59.9295 L122.76275,1.24344979e-14 L152.96475,1.24344979e-14 L152.96475,10.81025 L133.371,10.81025 L133.371,24.5935 Z M170.53125,50.47025 C176.67975,50.605 182.89525,51.07875 188.90875,51.416 L188.90875,62.09125 C179.24725,61.48275 169.5855,60.8755 159.72125,60.67225 L159.72125,8.8817842e-15 L170.53125,8.8817842e-15 L170.53125,50.47025 Z M198.02975,62.8345 C201.4755,63.0375 205.124,63.24025 208.63725,63.645 L208.63725,1.77635684e-15 L198.02975,1.77635684e-15 L198.02975,62.8345 Z M256,5.32907052e-15 L242.28425,32.90375 L256,69.1855 C251.94575,68.645 247.892,67.90175 243.838,67.226 L236.0685,47.2275 L228.16425,65.605 C224.24475,64.92875 220.46125,64.726 216.54325,64.1855 L230.46125,32.498 L217.894,5.32907052e-15 L229.5145,5.32907052e-15 L236.60875,18.17475 L244.17625,5.32907052e-15 L256,5.32907052e-15 Z" id="Shape"></path>
        </g>
    </g>
</svg>