<?xml version="1.0" encoding="UTF-8"?>
<svg width="1000px" height="1000px" viewBox="0 0 1000 1000" version="1.1" xmlns="http://www.w3.org/2000/svg" xmlns:xlink="http://www.w3.org/1999/xlink">
    <title>Artboard</title>
    <g id="Artboard" stroke="none" stroke-width="1" fill="none" fill-rule="evenodd">
        <path d="M0,476.412649 C0,476.412649 129.751647,772.939347 156.107451,772.939347 C182.463254,772.939347 332.140597,752.850252 425.747592,805.598756 C519.354588,858.34726 378.423049,1000 559.047136,1000 C739.671224,1000 916.254437,912.983156 973.137354,805.598756 C1030.02027,698.214356 825.139382,497.667185 825.139382,497.667185 C825.139382,497.667185 1000,235.87351 1000,235.87351 C1000,235.87351 680.182463,0 655.854029,0 C631.525596,0 387.89101,129.062652 291.434364,149.818559 C194.977717,170.574465 89.7110998,93.8310005 89.7110998,121.82478 C89.7110998,149.818559 84.1852046,322.664688 69.9442473,378.952825 C55.7032901,435.240963 0,476.412649 0,476.412649 Z" id="Path-4" fill="#FF6A33"></path>
    </g>
</svg>